<?xml version="1.0" encoding="utf-8"?>
<!-- Generator: Adobe Illustrator 19.0.0, SVG Export Plug-In . SVG Version: 6.00 Build 0)  -->
<svg version="1.0" id="Camada_1" xmlns="http://www.w3.org/2000/svg" xmlns:xlink="http://www.w3.org/1999/xlink" x="0px" y="0px"
	 viewBox="-175 287 261 220" style="enable-background:new -175 287 261 220;" xml:space="preserve">
<style type="text/css">
	.st0{fill:#009530;}
</style>
<g>
	<g transform="translate(-838.000000, -332.000000)">
		<g transform="translate(236.000000, 186.000000)">
			<g transform="translate(520.000000, 52.000000)">
				<g>
					<g transform="translate(82.000000, 94.000000)">
						<g>
							<g>
								<polygon class="st0" points="-175,408 -121,408 -121,354 								"/>
								<polygon class="st0" points="-51.1,287 -99,334.5 -99,409 -65.9,409 -96.7,378.5 -65.9,348 -37.3,348 -68.2,378.5 
									-37.3,409 86,287 								"/>
								<path d="M17.4,448.7c-3,0-5.5,1-7.3,3.5H10v-3H4.5v22.3h5.8v-10.9c0-2.9,0.9-7.4,5.2-7.4c3.7,0,3.7,3.7,3.7,6.4v11.9H25v-14
									C25,452.4,22.7,448.7,17.4,448.7z M-7.1,471.4h5.8v-22.3h-5.8V471.4z M-7.1,445.1h5.8v-5.6h-5.8V445.1z M-22.8,467.5
									c-3.9-0.1-5.1-4.1-5.1-7.3c0-3,1.4-6.9,5.1-7h0c3.8,0,4.8,4.1,4.8,7C-18,463.3-19,467.5-22.8,467.5z M-21.3,448.7
									c-0.6,0-1.6,0.2-1.6,0.2c-2.2,0.4-3.7,1.6-5,3.2H-28v-13h-5.8v32.4h5.7v-2.7h0.1c1.3,1.8,3.1,2.8,5.2,3.1
									c0,0,1.1,0.2,1.6,0.2c6.9,0,9.4-5.6,9.4-11.8C-11.9,454.2-14.4,448.7-21.3,448.7z M-46.2,465.7c-1.8,1.9-3.8,2.1-4,2.1
									c-2.1,0-3.7-0.8-3.7-2.7c0-2.6,2.2-3.5,4.7-3.8c0,0,1.2-0.1,1.8-0.1h2.5C-45,462.9-45.3,464.5-46.2,465.7z M-39.7,460.9
									v-2.8c0-6.6-2.9-9.4-9.6-9.4v0c0,0,0,0,0,0c0,0,0,0,0,0h-0.1v0c-2.6,0-5.5,0.7-7.7,1.7l0.2,4.9c2-1.5,4.5-2.4,6.9-2.4h0.6
									c3,0.1,4.4,1.4,4.4,4.8l-4.4,0.1c-2.3,0.1-4.5,0.3-6.2,1.2c-2.2,1.1-3.9,3-3.9,6.4c0,4.2,3.9,6.6,7.8,6.6
									c1.1,0,2.4-0.4,2.4-0.4c1.9-0.6,3.6-1.8,4.5-3.5h0.1c0.1,0.7,0.1,2.1,0.3,3.3h5.1c-0.2-1.7-0.2-3.3-0.2-5
									C-39.7,464.8-39.7,463.2-39.7,460.9z M-70.1,471.4h5.8V439h-5.8V471.4z M-74.5,441.3H-82l-10.9,12.9v-12.9H-99v30.1h6.1v-14
									h0.1l10.9,14h7.9l-12.9-16L-74.5,441.3z"/>
							</g>
						</g>
					</g>
				</g>
			</g>
		</g>
	</g>
</g>
</svg>
